<?xml version="1.0" encoding="windows-1252"?>
<svg version="1.1" id="Layer_1" xmlns="http://www.w3.org/2000/svg" xmlns:xlink="http://www.w3.org/1999/xlink" x="0px" y="0px" viewBox="0 0 512 512" style="enable-background:new 0 0 512 512;" xml:space="preserve">
<path style="fill:#FFFFFF;" d="M348.151,270.573L279.27,339.45V23.273C279.27,10.42,268.85,0,255.997,0  c-12.853,0-23.273,10.42-23.273,23.273v316.176l-68.875-68.875c-9.087-9.089-23.824-9.089-32.912,0  c-9.089,9.087-9.089,23.823,0,32.912l108.598,108.6c0.545,0.543,1.117,1.058,1.713,1.545c0.262,0.216,0.546,0.408,0.818,0.613  c0.334,0.251,0.664,0.512,1.008,0.743c0.327,0.22,0.673,0.413,1.013,0.616c0.312,0.186,0.619,0.383,0.937,0.554  c0.346,0.185,0.704,0.343,1.06,0.51c0.335,0.158,0.666,0.326,1.004,0.467c0.343,0.141,0.697,0.258,1.049,0.383  c0.366,0.132,0.731,0.273,1.102,0.385c0.348,0.105,0.704,0.183,1.06,0.273c0.382,0.096,0.763,0.205,1.15,0.281  c0.403,0.079,0.816,0.129,1.227,0.188c0.341,0.048,0.68,0.113,1.022,0.147c0.756,0.074,1.52,0.116,2.296,0.116  c0.776,0,1.539-0.042,2.295-0.116c0.349-0.034,0.692-0.099,1.041-0.15c0.403-0.059,0.811-0.105,1.207-0.185  c0.396-0.078,0.787-0.188,1.178-0.287c0.344-0.087,0.692-0.163,1.03-0.265c0.382-0.115,0.754-0.261,1.131-0.396  c0.341-0.123,0.687-0.234,1.019-0.372c0.349-0.144,0.686-0.317,1.029-0.478c0.348-0.163,0.7-0.318,1.036-0.498  c0.324-0.174,0.636-0.374,0.954-0.563c0.334-0.2,0.676-0.393,1.001-0.608c0.343-0.23,0.672-0.489,1.004-0.739  c0.275-0.206,0.559-0.399,0.825-0.618c0.56-0.461,1.103-0.951,1.629-1.472c0.025-0.025,0.051-0.045,0.076-0.068l108.609-108.603  c9.089-9.089,9.089-23.824,0-32.912C371.974,261.485,357.238,261.486,348.151,270.573z"/>
<path style="fill:#FFFFFF;" d="M488.727,465.455H23.273C10.42,465.455,0,475.875,0,488.727S10.42,512,23.273,512h465.455  C501.58,512,512,501.58,512,488.727S501.58,465.455,488.727,465.455z"/>
<g>
</g>
<g>
</g>
<g>
</g>
<g>
</g>
<g>
</g>
<g>
</g>
<g>
</g>
<g>
</g>
<g>
</g>
<g>
</g>
<g>
</g>
<g>
</g>
<g>
</g>
<g>
</g>
<g>
</g>
</svg>