<?xml version="1.0" encoding="windows-1252"?>
<!-- Generator: Adobe Illustrator 19.0.0, SVG Export Plug-In . SVG Version: 6.00 Build 0)  -->
<svg version="1.1" id="Layer_1" xmlns="http://www.w3.org/2000/svg" xmlns:xlink="http://www.w3.org/1999/xlink" x="0px" y="0px" viewBox="0 0 512.002 512.002" style="enable-background:new 0 0 512.002 512.002;" xml:space="preserve">
<path style="fill:#FFFFFF;" d="M27.161,463.165h457.688L256.001,59.125L27.161,463.165z M255.345,417.901  c-17.536,0-29.232-12.664-29.232-29.552c0-17.216,12.024-29.56,29.232-29.56c17.216,0,28.584,12.344,28.912,29.56  C284.265,405.237,272.897,417.901,255.345,417.901z M273.865,342.541h-37.024l-7.48-147.144h51.648L273.865,342.541z"/>
<path style="fill:#8AD5DD;" d="M264.705,33.909c-1.768-3.136-5.096-5.072-8.704-5.072c-3.6,0-6.928,1.936-8.704,5.072l-246,434.328  c-1.752,3.096-1.728,6.888,0.064,9.968c1.792,3.072,5.088,4.96,8.64,4.96h492c3.552,0,6.848-1.888,8.64-4.96  c1.792-3.08,1.816-6.872,0.064-9.968L264.705,33.909z M27.161,463.165l228.84-404.04l228.84,404.04H27.161z"/>
<g>
	<polygon style="fill:#DB2B42;" points="236.841,342.541 273.865,342.541 281.009,195.397 229.361,195.397  "/>
	<path style="fill:#DB2B42;" d="M255.345,358.781c-17.208,0-29.232,12.344-29.232,29.56c0,16.888,11.696,29.552,29.232,29.552   c17.544,0,28.912-12.664,28.912-29.552C283.937,371.125,272.569,358.781,255.345,358.781z"/>
</g>
<g>
</g>
<g>
</g>
<g>
</g>
<g>
</g>
<g>
</g>
<g>
</g>
<g>
</g>
<g>
</g>
<g>
</g>
<g>
</g>
<g>
</g>
<g>
</g>
<g>
</g>
<g>
</g>
<g>
</g>
</svg>