<?xml version="1.0" encoding="iso-8859-1"?>
<svg version="1.1" id="Layer_1" xmlns="http://www.w3.org/2000/svg" xmlns:xlink="http://www.w3.org/1999/xlink" x="0px" y="0px"
	 viewBox="0 0 358.198 358.198" style="enable-background:new 0 0 358.198 358.198;" xml:space="preserve">
<polygon style="fill:#FFFFFF;" points="358.198,118.995 358.198,0 239.204,0 239.204,40 289.941,40 179.099,150.842 68.257,40 
	118.995,40 118.995,0 0,0 0,118.995 40,118.995 40,68.312 150.815,179.126 40,289.94 40,239.203 0,239.203 0,358.198 
	118.995,358.198 118.995,318.198 68.311,318.198 179.099,207.41 289.887,318.198 239.204,318.198 239.204,358.198 358.198,358.198 
	358.198,239.203 318.198,239.203 318.198,289.94 207.384,179.126 318.198,68.312 318.198,118.995 "/>
<g>
</g>
<g>
</g>
<g>
</g>
<g>
</g>
<g>
</g>
<g>
</g>
<g>
</g>
<g>
</g>
<g>
</g>
<g>
</g>
<g>
</g>
<g>
</g>
<g>
</g>
<g>
</g>
<g>
</g>
</svg>
