<?xml version="1.0" encoding="iso-8859-1"?>
<svg version="1.1" id="Layer_1" xmlns="http://www.w3.org/2000/svg" xmlns:xlink="http://www.w3.org/1999/xlink" x="0px" y="0px"
	 viewBox="0 0 433.875 433.875" style="enable-background:new 0 0 433.875 433.875;" xml:space="preserve">
<path style="fill:#FFFFFF;" d="M417.253,126.408l-36.955,15.308c18.074,43.635,18.074,91.697,0,135.332s-52.059,77.62-95.694,95.694
	c-43.635,18.074-91.697,18.074-135.332,0c-43.635-18.074-77.62-52.059-95.694-95.694c-33.258-80.293-2.76-171.359,68.054-216.621
	v66.125h40V7.557H42.636v40h29.849c-24.058,21.442-43.167,48.199-55.863,78.851c-22.163,53.506-22.163,112.441,0,165.947
	c22.163,53.506,63.835,95.179,117.342,117.342c26.756,11.083,54.86,16.624,82.974,16.622c28.107-0.001,56.224-5.542,82.974-16.622
	c53.506-22.163,95.179-63.836,117.342-117.342C439.416,238.849,439.416,179.914,417.253,126.408z"/>
<g>
</g>
<g>
</g>
<g>
</g>
<g>
</g>
<g>
</g>
<g>
</g>
<g>
</g>
<g>
</g>
<g>
</g>
<g>
</g>
<g>
</g>
<g>
</g>
<g>
</g>
<g>
</g>
<g>
</g>
</svg>
