<?xml version="1.0" encoding="iso-8859-1"?>
<!-- Generator: Adobe Illustrator 19.0.0, SVG Export Plug-In . SVG Version: 6.00 Build 0)  -->
<svg version="1.1" id="Layer_1" xmlns="http://www.w3.org/2000/svg" xmlns:xlink="http://www.w3.org/1999/xlink" x="0px" y="0px"
	 viewBox="0 0 512 512" style="fill:#ffffff;enable-background:new 0 0 512 512;" xml:space="preserve">
<g>
	<path style="fill:#ffffff;" d="M498.725,89.435c7.328,0,13.275,5.947,13.275,13.275s-5.947,13.275-13.275,13.275H183.172v12.479
		c0,18.293-14.882,33.188-33.188,33.188H98.476c-18.293,0-33.188-14.895-33.188-33.188v-12.479H13.275
		C5.947,115.986,0,110.039,0,102.711s5.947-13.275,13.275-13.275h52.012V76.957c0-18.293,14.895-33.188,33.188-33.188h51.508
		c18.307,0,33.188,14.895,33.188,33.188v12.479H498.725z M156.621,128.465V76.957c0-3.664-2.974-6.638-6.638-6.638H98.476
		c-3.651,0-6.638,2.974-6.638,6.638v51.508c0,3.651,2.987,6.638,6.638,6.638h51.508
		C153.648,135.102,156.621,132.115,156.621,128.465z"/>
	<path style="fill:#ffffff;" d="M498.725,237.295c7.328,0,13.275,5.947,13.275,13.275c0,7.328-5.947,13.275-13.275,13.275h-52.012
		v12.465c0,18.307-14.895,33.188-33.188,33.188h-51.508c-18.307,0-33.188-14.882-33.188-33.188v-12.465H13.275
		C5.947,263.846,0,257.898,0,250.57c0-7.328,5.947-13.275,13.275-13.275h315.553v-12.479c0-18.307,14.882-33.188,33.188-33.188
		h51.508c18.293,0,33.188,14.882,33.188,33.188v12.479H498.725z M420.162,276.311v-51.495c0-3.664-2.987-6.638-6.638-6.638h-51.508
		c-3.664,0-6.638,2.974-6.638,6.638v51.495c0,3.664,2.974,6.638,6.638,6.638h51.508
		C417.175,282.949,420.162,279.975,420.162,276.311z"/>
	<path style="fill:#ffffff;" d="M498.725,396.014c7.328,0,13.275,5.947,13.275,13.275c0,7.328-5.947,13.275-13.275,13.275H276.431
		v12.479c0,18.293-14.882,33.188-33.188,33.188h-51.495c-18.307,0-33.188-14.895-33.188-33.188v-12.479H13.275
		C5.947,422.565,0,416.617,0,409.289c0-7.328,5.947-13.275,13.275-13.275H158.56v-12.479c0-18.293,14.882-33.188,33.188-33.188
		h51.495c18.307,0,33.188,14.895,33.188,33.188v12.479H498.725z M249.88,435.043v-51.508c0-3.651-2.974-6.638-6.638-6.638h-51.495
		c-3.664,0-6.638,2.987-6.638,6.638v51.508c0,3.664,2.974,6.638,6.638,6.638h51.495C246.906,441.681,249.88,438.707,249.88,435.043z
		"/>
</g>
<g>
	<path style="fill:#ffffff;" d="M420.162,224.816v51.495c0,3.664-2.987,6.638-6.638,6.638h-51.508c-3.664,0-6.638-2.974-6.638-6.638
		v-51.495c0-3.664,2.974-6.638,6.638-6.638h51.508C417.175,218.179,420.162,221.152,420.162,224.816z"/>
	<path style="fill:#ffffff;" d="M249.88,383.535v51.508c0,3.664-2.974,6.638-6.638,6.638h-51.495c-3.664,0-6.638-2.974-6.638-6.638
		v-51.508c0-3.651,2.974-6.638,6.638-6.638h51.495C246.906,376.898,249.88,379.885,249.88,383.535z"/>
	<path style="fill:#ffffff;" d="M156.621,76.957v51.508c0,3.651-2.974,6.638-6.638,6.638H98.476c-3.651,0-6.638-2.987-6.638-6.638
		V76.957c0-3.664,2.987-6.638,6.638-6.638h51.508C153.648,70.319,156.621,73.293,156.621,76.957z"/>
</g>
<g>
</g>
<g>
</g>
<g>
</g>
<g>
</g>
<g>
</g>
<g>
</g>
<g>
</g>
<g>
</g>
<g>
</g>
<g>
</g>
<g>
</g>
<g>
</g>
<g>
</g>
<g>
</g>
<g>
</g>
</svg>
