<?xml version="1.0" encoding="windows-1252"?>
<svg version="1.1" id="Layer_1" xmlns="http://www.w3.org/2000/svg" xmlns:xlink="http://www.w3.org/1999/xlink" x="0px" y="0px" viewBox="0 0 280.018 280.018" style="enable-background:new 0 0 280.018 280.018;" xml:space="preserve">
<g>
	<path style="fill:#FFFFFF;" d="M183.046,77.944l-7.333-15.883l-87.509,52.505l7.333,15.883L183.046,77.944z M88.213,165.461   l87.509,52.505l7.333-15.892L95.546,149.57L88.213,165.461z"/>
	<path style="fill:#FFFFFF;" d="M214.391,105.01c28.983,0,52.505-23.514,52.505-52.505S243.373,0,214.391,0   c-28.992,0-52.505,23.514-52.505,52.505S185.391,105.01,214.391,105.01z M214.391,26.253c14.491,0,26.253,11.752,26.253,26.253   s-11.761,26.253-26.253,26.253c-14.483,0-26.253-11.752-26.253-26.253S199.908,26.253,214.391,26.253z M65.627,87.5   c-29,0-52.505,23.514-52.505,52.505s23.505,52.505,52.505,52.505c28.983,0,52.505-23.514,52.505-52.505S94.61,87.5,65.627,87.5z    M65.627,166.257c-14.509,0-26.253-11.752-26.253-26.253s11.744-26.253,26.253-26.253c14.491,0,26.253,11.752,26.253,26.253   C91.88,154.514,80.127,166.257,65.627,166.257z M214.391,175.008c-28.992,0-52.505,23.514-52.505,52.505   s23.514,52.505,52.505,52.505c28.983,0,52.505-23.514,52.505-52.505S243.373,175.008,214.391,175.008z M214.391,253.766   c-14.483,0-26.253-11.761-26.253-26.253c0-14.483,11.77-26.253,26.253-26.253c14.491,0,26.253,11.77,26.253,26.253   C240.643,242.005,228.882,253.766,214.391,253.766z"/>
</g>
<g>
</g>
<g>
</g>
<g>
</g>
<g>
</g>
<g>
</g>
<g>
</g>
<g>
</g>
<g>
</g>
<g>
</g>
<g>
</g>
<g>
</g>
<g>
</g>
<g>
</g>
<g>
</g>
<g>
</g>
</svg>